<?xml version="1.0" standalone="no"?>
<!DOCTYPE svg PUBLIC "-//W3C//DTD SVG 20010904//EN"
 "http://www.w3.org/TR/2001/REC-SVG-20010904/DTD/svg10.dtd">
<svg version="1.0" xmlns="http://www.w3.org/2000/svg"
 width="512.000000pt" height="512.000000pt" viewBox="0 0 512.000000 512.000000"
 preserveAspectRatio="xMidYMid meet">

<g transform="translate(0.000000,512.000000) scale(0.100000,-0.100000)"
fill="#000000" stroke="none">
<path d="M725 4553 c-69 -15 -126 -35 -123 -42 8 -24 1538 -1405 1573 -1422
50 -23 79 -23 127 -1 31 14 1567 1401 1576 1422 1 4 -21 15 -50 26 -51 18
-103 19 -1568 20 -833 1 -1524 0 -1535 -3z"/>
<path d="M343 4228 c-17 -50 -18 -108 -18 -1108 0 -1000 1 -1058 18 -1108 11
-29 23 -52 28 -50 15 5 1269 1149 1269 1158 0 9 -1254 1153 -1269 1158 -5 2
-17 -21 -28 -50z"/>
<path d="M3468 3703 c-350 -318 -637 -580 -637 -583 0 -3 114 -107 252 -232
l252 -227 413 412 413 412 -4 345 c-3 306 -6 351 -22 398 -10 28 -21 52 -25
52 -3 0 -292 -260 -642 -577z"/>
<path d="M4095 2946 c-16 -8 -81 -65 -142 -128 l-113 -113 355 -355 355 -355
110 110 c60 60 117 124 125 141 24 50 19 104 -14 155 -44 68 -509 525 -553
543 -45 19 -83 20 -123 2z"/>
<path d="M1244 2319 c-351 -319 -640 -584 -642 -589 -2 -5 21 -17 50 -27 49
-16 115 -18 878 -21 l825 -2 377 377 377 378 -220 200 c-121 110 -238 215
-260 233 l-39 34 -35 -30 c-157 -139 -397 -156 -575 -42 -26 17 -55 39 -65 50
-10 11 -21 20 -25 20 -4 0 -294 -261 -646 -581z"/>
<path d="M3088 1953 c-439 -441 -518 -523 -523 -553 -3 -19 -5 -157 -3 -307 3
-256 4 -273 24 -299 11 -15 33 -37 48 -48 26 -20 43 -21 314 -24 204 -2 294 1
316 9 18 7 242 222 544 523 l512 511 -352 352 c-194 194 -355 353 -358 353 -3
0 -238 -233 -522 -517z"/>
<path d="M3615 866 c-67 -29 -105 -106 -91 -181 9 -47 59 -102 104 -115 25 -8
208 -10 553 -8 l516 3 35 27 c94 71 82 214 -22 269 -32 18 -67 19 -550 19
-406 -1 -521 -4 -545 -14z"/>
</g>
</svg>
